<svg width="31" height="31" viewBox="0 0 31 31" fill="none" xmlns="http://www.w3.org/2000/svg">
<g clip-path="url(#clip0_1_176)">
<path d="M17.7408 21.3255L12.0933 18.2453C11.5512 18.7834 10.8619 19.149 10.1123 19.2959C9.36274 19.4429 8.58644 19.3646 7.88129 19.071C7.17614 18.7774 6.5737 18.2816 6.14992 17.6461C5.72614 17.0106 5.5 16.2638 5.5 15.5C5.5 14.7362 5.72614 13.9894 6.14992 13.3539C6.5737 12.7184 7.17614 12.2226 7.88129 11.929C8.58644 11.6354 9.36274 11.5571 10.1123 11.7041C10.8619 11.851 11.5512 12.2166 12.0933 12.7547L17.7408 9.67453C17.5471 8.76576 17.687 7.81765 18.1349 7.00355C18.5828 6.18946 19.3088 5.56379 20.1801 5.24097C21.0514 4.91814 22.0098 4.91973 22.88 5.24545C23.7502 5.57116 24.4741 6.19923 24.9193 7.01481C25.3645 7.83038 25.5012 8.77896 25.3045 9.68707C25.1078 10.5952 24.5908 11.4022 23.848 11.9604C23.1052 12.5186 22.1863 12.7909 21.2593 12.7273C20.3323 12.6637 19.4592 12.2686 18.7996 11.6141L13.152 14.6943C13.2647 15.2255 13.2647 15.7745 13.152 16.3057L18.7996 19.3859C19.4592 18.7314 20.3323 18.3363 21.2593 18.2727C22.1863 18.2091 23.1052 18.4814 23.848 19.0396C24.5908 19.5978 25.1078 20.4048 25.3045 21.3129C25.5012 22.221 25.3645 23.1696 24.9193 23.9852C24.4741 24.8008 23.7502 25.4288 22.88 25.7546C22.0098 26.0803 21.0514 26.0819 20.1801 25.759C19.3088 25.4362 18.5828 24.8105 18.1349 23.9964C17.687 23.1824 17.5471 22.2342 17.7408 21.3255Z" fill="white"/>
</g>
<defs>
<clipPath id="clip0_1_176">
<rect width="30" height="30" fill="white" transform="translate(0.25 0.5)"/>
</clipPath>
</defs>
</svg>
